# xmcd
# 
# Track frame offsets:
#     150
#     18252
#     40350
#     71000
# 
# Disc length: 1128
# 
# Revision: 0
# Processed by: cddbd v1.5.2PL0 Copyright (c) Steve Scherf et al.
# Submitted via: fre:ac v1.0.27
# 
DISCID=2e046604
DTITLE=Ash - Candy
DYEAR=2001
DGENRE=Indie
TTITLE0=Candy (remix radio edit)
TTITLE1=Candy (album version)
TTITLE2=Jesus Says (hedrock valleybeats lightyear 12" mix)
TTITLE3=13th Floor
EXTD=
EXTT0=
EXTT1=
EXTT2=
EXTT3=
PLAYORDER=
